<?xml version="1.0" encoding="UTF-8" standalone="no"?><!DOCTYPE svg PUBLIC "-//W3C//DTD SVG 1.1//EN" "http://www.w3.org/Graphics/SVG/1.1/DTD/svg11.dtd"><svg width="100%" height="100%" viewBox="0 0 2304 560" version="1.1" xmlns="http://www.w3.org/2000/svg" xmlns:xlink="http://www.w3.org/1999/xlink" xml:space="preserve" xmlns:serif="http://www.serif.com/" style="fill-rule:evenodd;clip-rule:evenodd;stroke-linejoin:round;stroke-miterlimit:2;"><rect id="Artboard1" x="0" y="0" width="2304" height="560" style="fill:none;"/><path d="M509.557,346.047l-99.935,55.873c0,0 3.916,0.076 12.389,13.994c5.497,9.028 24.421,107.009 6.381,112.876c-11.432,3.718 -23.888,-14.068 -65.173,-27.535c-35.057,-11.435 -98.922,-21.756 -137.845,-13.601c-71.42,14.964 -91.379,4.23 -112.584,-4.96c-41.196,-17.853 -60.568,-43.611 -60.568,-123.591l0,-241.858c0,-26.98 14.296,-51.94 37.568,-65.591c23.272,-13.651 67.035,-29.285 137.584,3.881l282.183,157.765c24.041,13.441 38.934,38.831 38.934,66.374c0,27.543 -14.894,52.933 -38.934,66.374Z"/><path d="M84.431,79.283c0.911,0.226 0.887,1.94 1.798,2.166c1.243,0.309 46.495,-44.257 140.1,3.564c18.799,9.604 18.219,10.325 231.089,127.391c42.784,23.529 46.077,31.694 51.838,29.215c6.331,10.201 6.074,10.081 10.522,21.231c-7.431,14.36 0.709,35.309 -50.366,62.707c-13.723,7.362 -15.787,5.108 -17.203,5.098c-0.661,-71.873 -52.424,-60.435 -41.772,-74.25c31.878,-41.344 -21.26,-104.455 -73.026,-61.051c-6.046,5.069 -5.09,-60.721 -70.776,-51.532c-30.142,4.217 -41.838,39.463 -45.019,37.849c-5.784,-2.934 -54.398,-27.592 -77.783,22.861c-0.352,0.76 -0.184,0.753 -2.485,10.17c-0.543,0.142 -1.146,1.75 -5.073,-0.59c-71.909,-42.86 -62.977,-93.205 -64.356,-101.521c-0.127,-0.768 -1.685,-0.706 -1.813,-1.474c4.812,-17.045 4.225,-17.263 14.324,-31.835Z" style="fill:#ed2d86;"/><path d="M403.894,408.01c9.731,6.312 22.358,112.506 19.132,110.742c-8.879,-4.855 -75.514,-64.007 -213.465,-40.684c-5.826,0.985 -41.424,4.458 -73.579,-6.408c-80.859,-27.324 -68.81,-72.698 -68.77,-140.999c0.075,-127.027 -0.535,-127.28 -0.076,-127.495c5.43,-2.55 3.736,25.544 79.438,65.475c160.005,84.399 215.469,112.221 257.319,139.368Z" style="fill:#fdfcfd;"/><path d="M227.433,274.911c3.782,-4.292 28.738,-32.615 67.865,-22.548c60.784,15.639 49.938,81.076 49.944,85.855c-29.048,-11.626 -95.588,-47.639 -117.809,-63.307Z" style="fill:#fdfdfd;"/><path d="M435.162,330.665c-12.489,3.124 -22.814,27.368 -72.569,12.093c-0.219,-41.162 1.107,-41.763 -9.854,-64.878c-4.842,-10.211 85.344,-19.123 82.423,52.785Z" style="fill:#fdfdfd;"/><path d="M239.009,196.792c8.127,-50.595 56.466,-40.526 69.192,-23.55c38.251,51.028 -57.503,97.911 -69.192,23.55Z" style="fill:#fdfdfd;"/><path d="M84.431,79.283c58.189,-57.483 128.065,-11.247 276.817,71.267c133.442,74.021 133.405,74.827 148.009,91.068c-5.761,2.479 -9.054,-5.686 -51.838,-29.215c-212.87,-117.066 -212.29,-117.787 -231.089,-127.391c-93.605,-47.821 -138.857,-3.255 -140.1,-3.564c-0.911,-0.226 -0.887,-1.94 -1.798,-2.166Z" style="fill:#f464ab;"/><path d="M157.826,222.443c3.747,-60.25 91.206,-27.503 64.675,17.647c-4.342,7.389 -4.964,6.68 -11.74,11.908c-1.901,-1.991 -1.604,-2.64 -4.225,-2.479c-26.497,1.621 -38.43,-15.407 -48.71,-27.076Z" style="fill:#fdfdfd;"/><path d="M341.341,223.809c7.535,-35.17 43.007,-29.016 54.069,-15.926c37.716,44.63 -57.078,77.009 -54.069,15.926Z" style="fill:#fdfdfd;"/><path d="M519.778,262.85c7.713,32.606 14.644,58.817 -108.811,120.225c-7.886,3.923 -13.738,-2.511 -8.695,-3.594c41.689,-8.955 45.654,-30.985 49.938,-48.827c1.416,0.01 3.48,2.264 17.203,-5.098c51.075,-27.398 42.935,-48.346 50.366,-62.707Z" style="fill:#ab2563;"/><path d="M70.106,111.118c0.127,0.768 1.685,0.706 1.813,1.474c1.379,8.316 -7.553,58.661 64.356,101.521c3.926,2.34 4.53,0.732 5.073,0.59c-2.622,18.554 11.446,36.433 -4.361,26.32c-72.909,-46.644 -68.436,-75.289 -66.88,-129.904Z" style="fill:#ab2563;"/><path d="M227.433,274.911c22.221,15.668 88.761,51.681 117.809,63.307c-0.331,12.501 0.315,12.64 -0.356,13.484c-2.953,3.711 -112.026,-58.151 -121.573,-63.565c-4.66,-2.643 2.542,-10.642 4.12,-13.226Z" style="fill:#cccccd;"/><path d="M435.162,330.665c-5.271,28.729 -35.546,39.983 -69.222,31.655c-6.456,-1.596 -3.1,-4.25 -3.346,-19.561c49.755,15.274 60.079,-8.97 72.569,-12.093Z" style="fill:#bfbfc0;"/><path d="M189.594,321.635c-0.622,4.567 -0.172,7.275 -4.446,5.226c-19.21,-9.209 -26.49,-6.486 -25.401,-27.832c0.117,-2.293 1.68,-1.938 27.115,9.393c3.33,1.483 1.894,2.547 2.731,13.213Z" style="fill:#151419;"/><path d="M189.6,453.98c-1.646,9.068 -5.184,7.077 -26.75,3.341c-5.037,-0.873 -4.787,-19.21 0.078,-18.387c13.155,2.226 14.104,-2.392 25.793,4.286c1.006,0.575 0.549,0.771 0.879,10.761Z" style="fill:#16151a;"/><path d="M157.826,222.443c10.28,11.669 22.214,28.697 48.71,27.076c2.621,-0.16 2.324,0.488 4.225,2.479c-29.867,15.711 -52.403,-3.654 -52.935,-29.555Z" style="fill:#c2c2c3;"/><path d="M116.22,291.677c-3.05,-9.119 -3.208,-19.629 1.502,-17.241c9.811,4.974 19.168,10.819 19.773,10.934c0.884,0.168 -0.217,13.563 1.565,16.74c3.722,6.637 -4.121,0.954 -22.84,-10.433Z" style="fill:#141418;"/><path d="M221.401,108.521c-29.384,-12.965 -7.323,-20.841 -5.775,-20.189c18.486,7.787 24.41,5.722 24.241,25.791c-0.041,4.826 -2.841,2.392 -18.467,-5.602Z" style="fill:#1d111e;"/><path d="M131.153,428.835c1.574,0.741 17.527,8.249 7.449,20.434c-1.856,2.244 -26.095,-9.759 -26.329,-13.414c-1.039,-16.26 1.248,-16.793 2.378,-16.14c8.207,4.737 7.897,4.84 16.502,9.121Z" style="fill:#151419;"/><path d="M190.565,85.513c-0.205,3.578 4.892,12.629 -8.221,9.553c-14.077,-3.302 -19.881,-1.153 -19.907,-6.523c-0.006,-1.132 -0.068,-14.078 3.503,-13.707c22.239,2.309 23.689,3.271 24.626,10.677Z" style="fill:#1c121d;"/><path d="M134.262,92.39c-8.547,1.261 -8.237,1.574 -16.446,3.713c-3.315,0.864 -8.415,-16.326 5.992,-19.67c12.79,-2.968 18.368,-5.482 18.409,7.589c0.022,6.883 -0.906,7.432 -7.955,8.368Z" style="fill:#1c121e;"/><path d="M94.728,417.887c-0.924,5.195 -0.216,7.586 -2.335,5.727c-25.655,-22.503 -19.454,-46.138 -15.729,-39.891c10.187,17.086 17.268,14.135 18.064,34.164Z" style="fill:#15151a;"/><path d="M75.412,233.612c12.492,19.465 20.866,16.635 19.414,39.694c-0.333,5.294 -30.511,-25.614 -19.414,-39.694Z" style="fill:#141318;"/><path d="M79.354,119.562c-0.139,-19.143 -0.659,-21.231 15.825,-31.297c1.542,-0.942 17.542,3.785 -5.425,21.928c-5.535,4.372 -4.679,4.879 -10.4,9.368Z" style="fill:#220f20;"/><path d="M318.056,236.153c3.087,-3.782 3.051,-3.771 3.334,-4.084c0.86,-0.95 2.602,-1.154 7.098,14.36c1.168,4.031 -6.344,-0.055 -13.283,-3.653c-4.321,-2.24 -0.078,-2.906 2.852,-6.623Z" style="fill:#c8296f;"/><path d="M203.525,271.952c5.015,-1.139 6.742,-3.195 6.463,0.076c-0.114,1.333 -3.049,4.244 -3.372,4.564c-0.975,0.967 -18.963,-0.926 -3.091,-4.64Z" style="fill:#dadade;"/><path d="M239.366,240.376c1.749,-2.597 1.683,-4.195 4.24,-2.274c3.071,2.307 -3.767,10.789 -4.24,2.274Z" style="fill:#672c46;"/><g><path d="M611.521,410.106l0,-218.741l112.653,0c20.889,0 36.855,1.791 47.896,5.372c11.042,3.581 19.944,10.221 26.709,19.919c6.764,9.699 10.146,21.511 10.146,35.437c0,12.136 -2.586,22.605 -7.759,31.409c-5.173,8.803 -12.285,15.941 -21.337,21.412c-5.769,3.482 -13.678,6.366 -23.724,8.654c8.057,2.686 13.926,5.372 17.607,8.057c2.487,1.791 6.093,5.62 10.818,11.489c4.725,5.869 7.883,10.395 9.475,13.578l32.677,63.414l-76.395,0l-36.109,-66.846c-4.576,-8.654 -8.654,-14.274 -12.235,-16.861c-4.874,-3.382 -10.395,-5.073 -16.562,-5.073l-5.968,0l0,88.78l-67.89,0Zm67.89,-130.111l28.499,0c3.084,0 9.052,-0.995 17.905,-2.984c4.476,-0.895 8.132,-3.183 10.967,-6.864c2.835,-3.681 4.252,-7.908 4.252,-12.683c0,-7.063 -2.238,-12.484 -6.714,-16.264c-4.476,-3.78 -12.882,-5.67 -25.216,-5.67l-29.693,0l0,44.464Z" style="fill:#ed2d86;fill-rule:nonzero;"/><path d="M1012.597,345.945l-121.755,0c1.094,9.748 3.73,17.01 7.908,21.785c5.869,6.864 13.528,10.295 22.978,10.295c5.968,0 11.638,-1.492 17.01,-4.476c3.283,-1.89 6.814,-5.222 10.594,-9.997l59.833,5.521c-9.152,15.916 -20.193,27.33 -33.125,34.244c-12.932,6.913 -31.483,10.37 -55.655,10.37c-20.989,0 -37.501,-2.959 -49.538,-8.878c-12.036,-5.919 -22.008,-15.319 -29.917,-28.201c-7.908,-12.882 -11.862,-28.027 -11.862,-45.434c0,-24.769 7.933,-44.813 23.799,-60.131c15.866,-15.319 37.775,-22.978 65.727,-22.978c22.68,0 40.585,3.432 53.715,10.295c13.13,6.864 23.127,16.811 29.991,29.842c6.864,13.031 10.295,29.991 10.295,50.88l0,6.864Zm-61.773,-29.096c-1.194,-11.738 -4.352,-20.143 -9.475,-25.216c-5.123,-5.073 -11.862,-7.61 -20.218,-7.61c-9.649,0 -17.358,3.83 -23.127,11.489c-3.681,4.775 -6.018,11.887 -7.013,21.337l59.833,0Z" style="fill:#ed2d86;fill-rule:nonzero;"/><path d="M1216.417,345.945l-121.755,0c1.094,9.748 3.73,17.01 7.908,21.785c5.869,6.864 13.528,10.295 22.978,10.295c5.968,0 11.638,-1.492 17.01,-4.476c3.283,-1.89 6.814,-5.222 10.594,-9.997l59.833,5.521c-9.152,15.916 -20.193,27.33 -33.125,34.244c-12.932,6.913 -31.483,10.37 -55.655,10.37c-20.989,0 -37.501,-2.959 -49.538,-8.878c-12.036,-5.919 -22.008,-15.319 -29.917,-28.201c-7.908,-12.882 -11.862,-28.027 -11.862,-45.434c0,-24.769 7.933,-44.813 23.799,-60.131c15.866,-15.319 37.775,-22.978 65.727,-22.978c22.68,0 40.585,3.432 53.715,10.295c13.13,6.864 23.127,16.811 29.991,29.842c6.864,13.031 10.295,29.991 10.295,50.88l0,6.864Zm-61.773,-29.096c-1.194,-11.738 -4.352,-20.143 -9.475,-25.216c-5.123,-5.073 -11.862,-7.61 -20.218,-7.61c-9.649,0 -17.358,3.83 -23.127,11.489c-3.681,4.775 -6.018,11.887 -7.013,21.337l59.833,0Z" style="fill:#ed2d86;fill-rule:nonzero;"/><rect x="1246.408" y="191.364" width="60.878" height="218.741" style="fill:#ed2d86;fill-rule:nonzero;"/><path d="M1495.738,320.729l59.236,17.905c-3.979,16.612 -10.246,30.489 -18.8,41.629c-8.555,11.141 -19.173,19.546 -31.856,25.216c-12.683,5.67 -28.822,8.505 -48.419,8.505c-23.774,0 -43.196,-3.457 -58.266,-10.37c-15.07,-6.913 -28.076,-19.074 -39.018,-36.482c-10.942,-17.408 -16.413,-39.69 -16.413,-66.846c0,-36.208 9.624,-64.036 28.872,-83.483c19.248,-19.447 46.479,-29.17 81.692,-29.17c27.554,0 49.214,5.57 64.981,16.711c15.766,11.141 27.479,28.25 35.139,51.328l-59.684,13.28c-2.089,-6.665 -4.277,-11.539 -6.565,-14.623c-3.78,-5.173 -8.405,-9.152 -13.876,-11.937c-5.471,-2.785 -11.589,-4.178 -18.353,-4.178c-15.319,0 -27.057,6.167 -35.213,18.502c-6.167,9.152 -9.251,23.525 -9.251,43.122c0,24.271 3.681,40.908 11.042,49.911c7.361,9.002 17.706,13.503 31.036,13.503c12.932,0 22.705,-3.631 29.32,-10.892c6.615,-7.262 11.415,-17.806 14.399,-31.632Z" style="fill:#fff;fill-rule:nonzero;"/><path d="M1584.368,251.645l56.849,0l0,25.962c5.471,-11.24 11.116,-18.974 16.935,-23.202c5.819,-4.228 13.006,-6.341 21.561,-6.341c8.953,0 18.751,2.785 29.394,8.356l-18.8,43.271c-7.162,-2.984 -12.832,-4.476 -17.01,-4.476c-7.958,0 -14.125,3.283 -18.502,9.848c-6.267,9.251 -9.4,26.559 -9.4,51.925l0,53.119l-61.027,0l0,-158.461Z" style="fill:#fff;fill-rule:nonzero;"/><path d="M1900.245,345.945l-121.755,0c1.094,9.748 3.73,17.01 7.908,21.785c5.869,6.864 13.528,10.295 22.978,10.295c5.968,0 11.638,-1.492 17.01,-4.476c3.283,-1.89 6.814,-5.222 10.594,-9.997l59.833,5.521c-9.152,15.916 -20.193,27.33 -33.125,34.244c-12.932,6.913 -31.483,10.37 -55.655,10.37c-20.989,0 -37.501,-2.959 -49.538,-8.878c-12.036,-5.919 -22.008,-15.319 -29.917,-28.201c-7.908,-12.882 -11.862,-28.027 -11.862,-45.434c0,-24.769 7.933,-44.813 23.799,-60.131c15.866,-15.319 37.775,-22.978 65.727,-22.978c22.68,0 40.585,3.432 53.715,10.295c13.13,6.864 23.127,16.811 29.991,29.842c6.864,13.031 10.295,29.991 10.295,50.88l0,6.864Zm-61.773,-29.096c-1.194,-11.738 -4.352,-20.143 -9.475,-25.216c-5.123,-5.073 -11.862,-7.61 -20.218,-7.61c-9.649,0 -17.358,3.83 -23.127,11.489c-3.681,4.775 -6.018,11.887 -7.013,21.337l59.833,0Z" style="fill:#fff;fill-rule:nonzero;"/><path d="M1910.242,251.645l58.789,0l25.515,99.821l32.229,-99.821l54.76,0l33.423,99.821l25.515,-99.821l58.341,0l-58.341,158.461l-54.014,0l-32.08,-95.345l-31.036,95.345l-54.312,0l-58.789,-158.461Z" style="fill:#fff;fill-rule:nonzero;"/></g></svg>